<?xml version="1.0" standalone="no"?>
<!DOCTYPE svg PUBLIC "-//W3C//DTD SVG 20010904//EN"
 "http://www.w3.org/TR/2001/REC-SVG-20010904/DTD/svg10.dtd">
<svg version="1.0" xmlns="http://www.w3.org/2000/svg"
 width="2875.000000pt" height="2875.000000pt" viewBox="0 0 2875.000000 2875.000000"
 preserveAspectRatio="xMidYMid meet">
<metadata>
Created by potrace 1.11, written by Peter Selinger 2001-2013
</metadata>
<g transform="translate(0.000000,2875.000000) scale(0.100000,-0.100000)"
fill="#000000" stroke="none">
<path d="M13985 28629 c-2411 -59 -4781 -742 -6880 -1983 -1675 -989 -3132
-2316 -4285 -3901 -1362 -1871 -2248 -4050 -2580 -6342 -152 -1045 -185 -2188
-94 -3253 318 -3756 2115 -7236 4994 -9676 1509 -1280 3259 -2229 5155 -2798
913 -274 1888 -458 2855 -540 776 -66 1654 -66 2430 0 2816 239 5493 1308
7705 3078 2255 1804 3925 4272 4755 7026 519 1723 707 3533 554 5330 -310
3655 -2022 7057 -4774 9486 -1218 1075 -2612 1938 -4100 2539 -1429 577 -2864
906 -4400 1010 -196 13 -921 37 -1005 33 -16 -1 -165 -5 -330 -9z m-8205
-12029 c171 -6 230 -12 288 -29 131 -38 207 -88 231 -154 7 -19 11 -230 11
-631 l0 -603 -142 -5 c-79 -2 -243 -2 -365 0 l-223 4 -2 342 -3 341 -1512 3
-1513 2 0 -1015 0 -1015 83 -1 c45 -1 581 -5 1192 -8 l1109 -6 -39 -44 c-143
-158 -660 -558 -837 -647 l-68 -34 -978 2 c-934 3 -979 4 -1015 22 -58 29
-133 101 -159 154 l-23 47 4 1485 c3 1423 4 1488 22 1547 22 70 78 158 128
199 18 15 54 33 80 40 36 10 425 13 1781 13 954 0 1832 -4 1950 -9z m5909 -83
c73 -41 119 -117 152 -255 22 -87 22 -88 16 -1437 -5 -1134 -9 -1371 -22
-1480 -9 -71 -18 -139 -22 -150 -12 -40 -47 -78 -90 -97 -43 -19 -88 -19
-2403 -18 -1964 0 -2367 3 -2404 14 -105 32 -193 109 -216 190 -9 34 -10 302
-1 1232 15 1678 18 1784 43 1852 26 70 87 136 141 156 37 13 337 14 2407 13
2279 -2 2366 -3 2399 -20z m4921 -502 l0 -425 -1690 0 -1690 0 0 -385 0 -385
845 0 845 0 0 -1255 0 -1255 -405 0 -405 0 0 825 0 825 -842 2 -843 3 -3 1238
-2 1237 2095 0 2095 0 0 -425z m8397 405 l1733 0 0 -1235 0 -1235 -2085 0
-2085 0 0 415 0 415 1675 0 1675 0 0 405 0 405 -1672 2 -1673 3 -3 405 c-1
223 0 411 3 419 5 12 58 13 352 8 190 -4 1126 -7 2080 -7z m-5334 -47 l227 -6
0 -347 c0 -378 -3 -358 57 -389 110 -57 916 226 1913 672 l145 65 8 -51 c4
-28 6 -174 5 -324 l-3 -274 -395 -165 c-833 -347 -1333 -536 -1700 -643 l-25
-8 -3 -556 -2 -557 1048 0 1049 0 7 -82 c10 -120 -4 -586 -18 -590 -6 -2
-1099 -2 -2428 0 l-2418 2 0 1134 0 1134 83 6 c45 3 404 20 797 36 781 33 910
44 1123 92 l87 20 0 413 c0 321 3 414 13 418 18 8 175 8 430 0z m-3063 -2793
l0 -1240 -435 0 -435 0 0 1240 0 1240 435 0 435 0 0 -1240z m10130 -855 l0
-415 -2085 0 -2085 0 0 415 0 415 2085 0 2085 0 0 -415z"/>
<path d="M7420 14820 l0 -1000 1845 0 1845 0 0 1000 0 1000 -1845 0 -1845 0 0
-1000z"/>
<path d="M18490 14779 c-344 -26 -633 -48 -643 -48 -18 -1 -18 -21 -15 -456
l3 -455 708 0 707 0 0 505 0 505 -67 -1 c-38 -1 -349 -23 -693 -50z"/>
</g>
</svg>
