<?xml version="1.0" standalone="no"?>
<!DOCTYPE svg PUBLIC "-//W3C//DTD SVG 1.1//EN" "http://www.w3.org/Graphics/SVG/1.1/DTD/svg11.dtd">
<svg width="100%" height="100%" viewBox="0 0 32 32" version="1.1" xmlns="http://www.w3.org/2000/svg" xmlns:xlink="http://www.w3.org/1999/xlink" xml:space="preserve" style="fill-rule:evenodd;clip-rule:evenodd;stroke-linejoin:round;stroke-miterlimit:1.41421;">
    <g transform="matrix(1.06617,0,0,1.06617,-1.05878,0)">
        <path d="M10,6C10,2.686 12.686,0 16,0C19.314,0 22,2.686 22,6C22,9.314 19.314,12 16,12C12.686,12 10,9.314 10,6ZM24.002,14L22.895,14L16.673,26.633L19,15L16,12L13,15L15.327,26.633L9.105,14L7.998,14C4,14 4,16.687 4,20L4,30L28,30L28,20C28,16.687 28,14 24.002,14Z" style="fill:black;fill-rule:nonzero;"/>
    </g>
</svg>
